<svg width="194" height="53" viewBox="0 0 194 53" fill="none" xmlns="http://www.w3.org/2000/svg">
<path d="M16.178 40.2543C18.0813 39.3065 19.1916 37.632 19.1916 35.4521C19.1916 31.7872 16.0829 29.7021 10.7853 29.7021H0V51.8175H11.3881C17.0979 51.8175 20.2067 49.3848 20.2067 45.4988C20.2067 42.8449 18.7475 41.0757 16.178 40.2543ZM6.18571 34.1883H10.1826C11.959 34.1883 12.8473 34.9466 12.8473 36.3683C12.8473 37.8216 11.959 38.5482 10.1826 38.5482H6.18571V34.1883ZM11.1343 47.3312H6.18571V42.7817H11.1343C12.9424 42.7817 13.8623 43.5084 13.8623 45.0249C13.8623 46.5414 12.9424 47.3312 11.1343 47.3312Z" fill="white"/>
<path d="M34.8348 52.2598C41.9404 52.2598 47.1745 47.3944 47.1745 40.7598C47.1745 34.1252 41.9404 29.2598 34.8348 29.2598C27.7291 29.2598 22.4951 34.1252 22.4951 40.7598C22.4951 47.3944 27.7291 52.2598 34.8348 52.2598ZM34.8348 47.0784C31.4723 47.0784 28.8394 44.5826 28.8394 40.7598C28.8394 36.937 31.4723 34.4411 34.8348 34.4411C38.1973 34.4411 40.8302 36.937 40.8302 40.7598C40.8302 44.5826 38.1973 47.0784 34.8348 47.0784Z" fill="white"/>
<path d="M61.6671 52.2598C65.7591 52.2598 69.0582 50.7749 71.2152 48.0894L67.2183 44.4878C65.8226 46.1622 64.1096 47.0784 61.9843 47.0784C58.3363 47.0784 55.7986 44.551 55.7986 40.7598C55.7986 36.9686 58.3363 34.4411 61.9843 34.4411C64.1096 34.4411 65.8226 35.3573 67.2183 37.0317L71.2152 33.4301C69.0582 30.7447 65.7591 29.2598 61.6671 29.2598C54.6249 29.2598 49.4542 34.0304 49.4542 40.7598C49.4542 47.4892 54.6249 52.2598 61.6671 52.2598Z" fill="white"/>
<path d="M92.0749 29.7021H72.2807V34.6622H79.1008V51.8175H85.2865V34.6622H92.0749V29.7021Z" fill="white"/>
<path d="M105.89 52.2598C112.996 52.2598 118.23 47.3944 118.23 40.7598C118.23 34.1252 112.996 29.2598 105.89 29.2598C98.7843 29.2598 93.5502 34.1252 93.5502 40.7598C93.5502 47.3944 98.7843 52.2598 105.89 52.2598ZM105.89 47.0784C102.527 47.0784 99.8946 44.5826 99.8946 40.7598C99.8946 36.937 102.527 34.4411 105.89 34.4411C109.252 34.4411 111.885 36.937 111.885 40.7598C111.885 44.5826 109.252 47.0784 105.89 47.0784Z" fill="white"/>
<path d="M135.926 51.8175H143L135.99 40.3806L142.937 29.7021H136.338L131.041 38.2955H128.027V29.7021H121.778V51.8175H128.027V43.3504H130.882L135.926 51.8175Z" fill="white"/>
<path d="M10.795 18.2598H9.112L8.143 15.5908H2.788L1.819 18.2598H0.136L4.573 6.35976H6.358L10.795 18.2598ZM5.457 8.24676L3.332 14.1118H7.599L5.457 8.24676ZM18.9988 12.0888C19.5542 12.3608 19.9905 12.7404 20.3078 13.2278C20.6252 13.7151 20.7838 14.2704 20.7838 14.8938C20.7838 15.8458 20.4495 16.6448 19.7808 17.2908C19.1122 17.9368 18.2962 18.2598 17.3328 18.2598H12.1988V6.35976H16.9588C17.8995 6.35976 18.6872 6.67143 19.3218 7.29476C19.9678 7.9181 20.2908 8.68877 20.2908 9.60677C20.2908 10.6721 19.8602 11.4994 18.9988 12.0888ZM16.9588 7.83877H13.7798V11.4768H16.9588C17.4575 11.4768 17.8768 11.3011 18.2168 10.9498C18.5568 10.5984 18.7268 10.1678 18.7268 9.65776C18.7268 9.1591 18.5512 8.7341 18.1998 8.38277C17.8598 8.0201 17.4462 7.83877 16.9588 7.83877ZM13.7798 16.7808H17.3328C17.8655 16.7808 18.3132 16.5938 18.6758 16.2198C19.0385 15.8458 19.2198 15.3868 19.2198 14.8428C19.2198 14.3101 19.0328 13.8568 18.6588 13.4828C18.3075 13.1088 17.8655 12.9218 17.3328 12.9218H13.7798V16.7808ZM21.3568 6.35976H29.9418V7.85576H26.4228V18.2598H24.8588V7.85576H21.3568V6.35976ZM30.1968 12.3098C30.1968 10.5871 30.7918 9.13076 31.9818 7.94076C33.1718 6.73943 34.6281 6.13876 36.3508 6.13876C38.0734 6.13876 39.5298 6.73943 40.7198 7.94076C41.9211 9.13076 42.5218 10.5871 42.5218 12.3098C42.5218 14.0211 41.9211 15.4774 40.7198 16.6788C39.5298 17.8801 38.0734 18.4808 36.3508 18.4808C34.6281 18.4808 33.1718 17.8801 31.9818 16.6788C30.7918 15.4661 30.1968 14.0098 30.1968 12.3098ZM40.9408 12.3098C40.9408 10.9951 40.4988 9.89577 39.6148 9.01177C38.7534 8.11643 37.6654 7.66877 36.3508 7.66877C35.0474 7.66877 33.9538 8.11643 33.0698 9.01177C32.1971 9.9071 31.7608 11.0064 31.7608 12.3098C31.7608 13.6018 32.1971 14.7011 33.0698 15.6078C33.9538 16.4918 35.0474 16.9338 36.3508 16.9338C37.6654 16.9338 38.7534 16.4918 39.6148 15.6078C40.4988 14.7011 40.9408 13.6018 40.9408 12.3098ZM53.7725 6.35976H55.5575V18.2598H53.9935V8.96076L50.1005 15.4378H49.8965L46.0035 8.97777V18.2598H44.4225V6.35976H46.2075L49.9985 12.6498L53.7725 6.35976ZM57.4731 12.3098C57.4731 10.5871 58.0681 9.13076 59.2581 7.94076C60.4481 6.73943 61.9045 6.13876 63.6271 6.13876C65.3498 6.13876 66.8061 6.73943 67.9961 7.94076C69.1975 9.13076 69.7981 10.5871 69.7981 12.3098C69.7981 14.0211 69.1975 15.4774 67.9961 16.6788C66.8061 17.8801 65.3498 18.4808 63.6271 18.4808C61.9045 18.4808 60.4481 17.8801 59.2581 16.6788C58.0681 15.4661 57.4731 14.0098 57.4731 12.3098ZM68.2171 12.3098C68.2171 10.9951 67.7751 9.89577 66.8911 9.01177C66.0298 8.11643 64.9418 7.66877 63.6271 7.66877C62.3238 7.66877 61.2301 8.11643 60.3461 9.01177C59.4735 9.9071 59.0371 11.0064 59.0371 12.3098C59.0371 13.6018 59.4735 14.7011 60.3461 15.6078C61.2301 16.4918 62.3238 16.9338 63.6271 16.9338C64.9418 16.9338 66.0298 16.4918 66.8911 15.6078C67.7751 14.7011 68.2171 13.6018 68.2171 12.3098ZM73.2798 11.0348H76.1698C77.1898 11.0348 78.0625 11.3861 78.7878 12.0888C79.5018 12.7801 79.8588 13.6301 79.8588 14.6388C79.8588 15.6588 79.5018 16.5201 78.7878 17.2228C78.0965 17.9141 77.2238 18.2598 76.1698 18.2598H71.6988V6.35976H78.8388V7.85576H73.2798V11.0348ZM73.2798 16.7808H76.1698C76.7592 16.7808 77.2578 16.5768 77.6658 16.1688C78.0852 15.7608 78.2948 15.2508 78.2948 14.6388C78.2948 14.0381 78.0852 13.5338 77.6658 13.1258C77.2578 12.7178 76.7592 12.5138 76.1698 12.5138H73.2798V16.7808ZM90.6192 18.2598H89.0382V9.38577L82.9182 18.2598H81.6432V6.35976H83.2242V15.2508L89.3442 6.35976H90.6192V18.2598ZM92.1276 18.2598V16.8318C92.9323 16.9451 93.5216 16.7184 93.8956 16.1518C94.281 15.5851 94.4736 14.5708 94.4736 13.1088V6.35976H102.328V18.2598H100.747V7.85576H96.0546V13.1088C96.0546 14.1628 95.9526 15.0524 95.7486 15.7778C95.556 16.5031 95.2726 17.0471 94.8986 17.4098C94.536 17.7724 94.128 18.0218 93.6746 18.1578C93.2326 18.2824 92.717 18.3164 92.1276 18.2598ZM106.466 10.6098H109.203C110.291 10.6098 111.204 10.9781 111.94 11.7148C112.677 12.4514 113.045 13.3581 113.045 14.4348C113.045 15.5228 112.677 16.4351 111.94 17.1718C111.215 17.8971 110.303 18.2598 109.203 18.2598H104.885V6.35976H106.466V10.6098ZM106.466 16.7808H109.203C109.861 16.7808 110.405 16.5598 110.835 16.1178C111.266 15.6758 111.481 15.1148 111.481 14.4348C111.481 13.7774 111.266 13.2221 110.835 12.7688C110.416 12.3154 109.872 12.0888 109.203 12.0888H106.466V16.7808ZM122.274 11.4088V6.35976H123.838V18.2598H122.274V12.9048H116.494V18.2598H114.913V6.35976H116.494V11.4088H122.274ZM130.702 18.2598H126.384V6.35976H127.965V10.6098H130.702C131.79 10.6098 132.703 10.9781 133.439 11.7148C134.176 12.4514 134.544 13.3581 134.544 14.4348C134.544 15.5228 134.176 16.4351 133.439 17.1718C132.714 17.8971 131.802 18.2598 130.702 18.2598ZM137.332 18.2598H135.751V6.35976H137.332V18.2598ZM127.965 12.0888V16.7808H130.702C131.36 16.7808 131.904 16.5598 132.334 16.1178C132.765 15.6758 132.98 15.1148 132.98 14.4348C132.98 13.7548 132.765 13.1938 132.334 12.7518C131.904 12.3098 131.36 12.0888 130.702 12.0888H127.965ZM146.664 5.08477H142.074V3.79277H146.664V5.08477ZM148.857 18.2598H147.276V9.38577L141.156 18.2598H139.881V6.35976H141.462V15.2508L147.582 6.35976H148.857V18.2598ZM164.374 6.35976V16.7638H165.649V20.5378H164.068V18.2598H156.214V20.5378H154.633V16.7638H155.67C156.407 15.8344 156.775 14.4404 156.775 12.5818V6.35976H164.374ZM157.455 16.7638H162.793V7.83877H158.356V12.6158C158.356 14.4064 158.056 15.7891 157.455 16.7638ZM166.662 12.3098C166.662 10.5871 167.257 9.13076 168.447 7.94076C169.637 6.73943 171.093 6.13876 172.816 6.13876C174.538 6.13876 175.995 6.73943 177.185 7.94076C178.386 9.13076 178.987 10.5871 178.987 12.3098C178.987 14.0211 178.386 15.4774 177.185 16.6788C175.995 17.8801 174.538 18.4808 172.816 18.4808C171.093 18.4808 169.637 17.8801 168.447 16.6788C167.257 15.4661 166.662 14.0098 166.662 12.3098ZM177.406 12.3098C177.406 10.9951 176.964 9.89577 176.08 9.01177C175.218 8.11643 174.13 7.66877 172.816 7.66877C171.512 7.66877 170.419 8.11643 169.535 9.01177C168.662 9.9071 168.226 11.0064 168.226 12.3098C168.226 13.6018 168.662 14.7011 169.535 15.6078C170.419 16.4918 171.512 16.9338 172.816 16.9338C174.13 16.9338 175.218 16.4918 176.08 15.6078C176.964 14.7011 177.406 13.6018 177.406 12.3098ZM190.237 6.35976H192.022V18.2598H190.458V8.96076L186.565 15.4378H186.361L182.468 8.97777V18.2598H180.887V6.35976H182.672L186.463 12.6498L190.237 6.35976Z" fill="white"/>
</svg>
