<svg width="153" height="41" viewBox="0 0 153 41" fill="none" xmlns="http://www.w3.org/2000/svg">
<path d="M129 32.2998H153V33.2998H129V32.2998Z" fill="black"/>
<path fill-rule="evenodd" clip-rule="evenodd" d="M23.4715 32.2998H1V33.2998H23.023L23.4715 32.2998Z" fill="black"/>
<path d="M19.0899 17.3H0.921875V0.5H19.0899C20.6099 0.5 21.7379 0.844001 22.4739 1.532C23.2099 2.204 23.5779 3.14 23.5779 4.34V5.972C23.5779 6.596 23.3699 7.188 22.9539 7.748C22.5379 8.292 21.8819 8.684 20.9859 8.924C21.8659 9.164 22.5139 9.556 22.9299 10.1C23.3619 10.644 23.5779 11.22 23.5779 11.828V13.46C23.5779 14.66 23.2099 15.604 22.4739 16.292C21.7379 16.964 20.6099 17.3 19.0899 17.3ZM19.0899 3.62H4.54588V7.34H19.0899C19.6499 7.34 19.9299 7.1 19.9299 6.62V4.34C19.9299 3.86 19.6499 3.62 19.0899 3.62ZM19.0899 10.46H4.54588V14.18H19.0899C19.6499 14.18 19.9299 13.94 19.9299 13.46V11.18C19.9299 10.7 19.6499 10.46 19.0899 10.46Z" fill="black"/>
<path d="M26.4631 4.34C26.4631 3.204 26.8871 2.284 27.7351 1.58C28.5991 0.86 29.6711 0.5 30.9511 0.5H45.1351C46.4151 0.5 47.4791 0.86 48.3271 1.58C49.1911 2.284 49.6231 3.204 49.6231 4.34V13.46C49.6231 14.596 49.1911 15.524 48.3271 16.244C47.4791 16.948 46.4151 17.3 45.1351 17.3H30.9511C29.6711 17.3 28.5991 16.948 27.7351 16.244C26.8871 15.524 26.4631 14.596 26.4631 13.46V4.34ZM45.9991 13.46V4.34C45.9991 3.86 45.7111 3.62 45.1351 3.62H30.9511C30.3751 3.62 30.0871 3.86 30.0871 4.34V13.46C30.0871 13.94 30.3751 14.18 30.9511 14.18H45.1351C45.7111 14.18 45.9991 13.94 45.9991 13.46Z" fill="black"/>
<path d="M56.6184 4.34V13.46C56.6184 13.94 56.9064 14.18 57.4824 14.18H74.2344V16.652L73.6584 17.3H57.4824C56.2024 17.3 55.1304 16.948 54.2664 16.244C53.4184 15.524 52.9944 14.596 52.9944 13.46V4.34C52.9944 3.204 53.4184 2.284 54.2664 1.58C55.1304 0.86 56.2024 0.5 57.4824 0.5H73.6584L74.2344 1.148V3.62H57.4824C56.9064 3.62 56.6184 3.86 56.6184 4.34Z" fill="black"/>
<path d="M76.2716 3.62V0.5H99.4556V3.62H89.6876V17.3H86.0636V3.62H76.2716Z" fill="black"/>
<path d="M101.979 4.34C101.979 3.204 102.403 2.284 103.251 1.58C104.115 0.86 105.187 0.5 106.467 0.5H120.651C121.931 0.5 122.995 0.86 123.843 1.58C124.707 2.284 125.139 3.204 125.139 4.34V13.46C125.139 14.596 124.707 15.524 123.843 16.244C122.995 16.948 121.931 17.3 120.651 17.3H106.467C105.187 17.3 104.115 16.948 103.251 16.244C102.403 15.524 101.979 14.596 101.979 13.46V4.34ZM121.515 13.46V4.34C121.515 3.86 121.227 3.62 120.651 3.62H106.467C105.891 3.62 105.603 3.86 105.603 4.34V13.46C105.603 13.94 105.891 14.18 106.467 14.18H120.651C121.227 14.18 121.515 13.94 121.515 13.46Z" fill="black"/>
<path d="M132.374 0.5V7.34H140.246L147.518 0.5H151.022V1.196L142.862 8.876L151.478 16.604V17.3H147.302L139.766 10.46H132.374V17.3H128.75V0.5H132.374Z" fill="black"/>
<path fill-rule="evenodd" clip-rule="evenodd" d="M0.421875 0H19.0899C20.6724 0 21.947 0.356479 22.8131 1.16471C23.6724 1.9504 24.0779 3.03169 24.0779 4.34V5.972C24.0779 6.71598 23.8274 7.41062 23.3552 8.04616L23.3511 8.05175C23.0805 8.40555 22.7337 8.69586 22.3208 8.92889C22.7207 9.15975 23.0582 9.44584 23.3242 9.79259C23.8141 10.4108 24.0779 11.0926 24.0779 11.828V13.46C24.0779 14.7698 23.6717 15.8568 22.8153 16.6573L22.811 16.6613C21.9449 17.4521 20.6712 17.8 19.0899 17.8H0.421875V0ZM1.42188 1V16.8H19.0899C20.5469 16.8 21.5286 16.4767 22.1346 15.9247C22.7488 15.3494 23.0779 14.549 23.0779 13.46V11.828C23.0779 11.3488 22.9106 10.8798 22.5383 10.4109L22.5326 10.4038C22.2023 9.97177 21.6635 9.62708 20.8543 9.40638L19.0696 8.91965L20.8565 8.44103C21.6816 8.22002 22.2257 7.87557 22.5546 7.44696C22.913 6.96344 23.0779 6.47503 23.0779 5.972V4.34C23.0779 3.24939 22.748 2.45939 22.1367 1.90124L22.1324 1.89729C21.5266 1.33095 20.546 1 19.0899 1H1.42188ZM30.9511 1C29.771 1 28.817 1.32926 28.0552 1.96411C27.3256 2.5698 26.9631 3.34745 26.9631 4.34V13.46C26.9631 14.4511 27.3241 15.2374 28.0549 15.8596C28.816 16.4782 29.7702 16.8 30.9511 16.8H45.1351C46.3181 16.8 47.2633 16.4772 48.0073 15.8596C48.7558 15.2358 49.1231 14.4492 49.1231 13.46V4.34C49.1231 3.35096 48.7562 2.57456 48.0113 1.96762L48.0034 1.96123C47.2593 1.32936 46.3155 1 45.1351 1H30.9511ZM27.4157 1.1953C28.3818 0.390546 29.5716 0 30.9511 0H45.1351C46.5129 0 47.6958 0.389684 48.647 1.19565C49.6274 1.99633 50.1231 3.05879 50.1231 4.34V13.46C50.1231 14.7427 49.6265 15.812 48.6472 16.6281C47.6953 17.4184 46.512 17.8 45.1351 17.8H30.9511C29.574 17.8 28.3855 17.4189 27.4193 16.6316L27.4114 16.6252C26.4489 15.8079 25.9631 14.7392 25.9631 13.46V4.34C25.9631 3.06056 26.4493 1.9976 27.4157 1.1953ZM57.4824 1C56.3022 1 55.3483 1.32926 54.5865 1.96411C53.8569 2.5698 53.4944 3.34745 53.4944 4.34V13.46C53.4944 14.4511 53.8553 15.2374 54.5861 15.8596C55.3473 16.4782 56.3015 16.8 57.4824 16.8H73.4338L73.7344 16.4619V14.68H57.4824C57.1373 14.68 56.7853 14.61 56.5143 14.3841C56.2258 14.1437 56.1184 13.8035 56.1184 13.46V4.34C56.1184 3.99653 56.2258 3.65632 56.5143 3.41589C56.7853 3.19001 57.1373 3.12 57.4824 3.12H73.7344V1.3381L73.4338 1H57.4824ZM53.947 1.1953C54.9131 0.390546 56.1029 0 57.4824 0H73.8829L74.7344 0.957901V4.12H57.4824C57.2515 4.12 57.1714 4.16999 57.1545 4.18411C57.1485 4.18911 57.1429 4.19503 57.1366 4.2107C57.1291 4.22942 57.1184 4.26897 57.1184 4.34V13.46C57.1184 13.531 57.1291 13.5706 57.1366 13.5893C57.1429 13.605 57.1485 13.6109 57.1545 13.6159C57.1714 13.63 57.2515 13.68 57.4824 13.68H74.7344V16.8421L73.8829 17.8H57.4824C56.1053 17.8 54.9168 17.4189 53.9505 16.6316L53.9427 16.6252C52.9801 15.8079 52.4944 14.7392 52.4944 13.46V4.34C52.4944 3.06056 52.9806 1.9976 53.947 1.1953ZM75.7716 0H99.9556V4.12H90.1876V17.8H85.5636V4.12H75.7716V0ZM76.7716 1V3.12H86.5636V16.8H89.1876V3.12H98.9556V1H76.7716ZM106.467 1C105.287 1 104.333 1.32926 103.571 1.96411C102.841 2.5698 102.479 3.34745 102.479 4.34V13.46C102.479 14.451 102.84 15.2373 103.57 15.8595C104.332 16.4782 105.286 16.8 106.467 16.8H120.651C121.834 16.8 122.779 16.4772 123.523 15.8599C124.271 15.236 124.639 14.4493 124.639 13.46V4.34C124.639 3.35096 124.272 2.57456 123.527 1.96762L123.519 1.96123C122.775 1.32936 121.831 1 120.651 1H106.467ZM102.931 1.19589C103.897 0.390739 105.087 0 106.467 0H120.651C122.028 0 123.211 0.389629 124.162 1.19548C125.143 1.99618 125.639 3.0587 125.639 4.34V13.46C125.639 14.7427 125.142 15.812 124.163 16.6281C123.211 17.4184 122.028 17.8 120.651 17.8H106.467C105.09 17.8 103.901 17.4189 102.935 16.6316L102.927 16.6252C101.964 15.8079 101.479 14.7392 101.479 13.46V4.34C101.479 3.06087 101.965 1.99813 102.931 1.19589ZM128.25 0H132.874V6.84H140.048L147.32 0H151.522V1.41204L143.601 8.86713L151.978 16.3808V17.8H147.109L139.573 10.96H132.874V17.8H128.25V0ZM129.25 1V16.8H131.874V9.96H139.959L147.495 16.8H150.948L142.123 8.88486L150.501 1H147.716L140.444 7.84H131.874V1H129.25ZM4.04588 3.12H19.0899C19.4297 3.12 19.7779 3.19118 20.0453 3.42037C20.3274 3.66221 20.4299 4.00107 20.4299 4.34V6.62C20.4299 6.95893 20.3274 7.29779 20.0453 7.53963C19.7779 7.76882 19.4297 7.84 19.0899 7.84H4.04588V3.12ZM5.04588 4.12V6.84H19.0899C19.31 6.84 19.3819 6.79118 19.3945 6.78037C19.399 6.77649 19.4047 6.77084 19.4114 6.75378C19.4192 6.73369 19.4299 6.69252 19.4299 6.62V4.34C19.4299 4.26748 19.4192 4.22631 19.4114 4.20622C19.4047 4.18916 19.399 4.18351 19.3945 4.17963C19.3819 4.16882 19.31 4.12 19.0899 4.12H5.04588ZM29.983 3.41589C30.2541 3.19001 30.606 3.12 30.9511 3.12H45.1351C45.4802 3.12 45.8322 3.19001 46.1032 3.41589C46.3917 3.65632 46.4991 3.99653 46.4991 4.34V13.46C46.4991 13.8035 46.3917 14.1437 46.1032 14.3841C45.8322 14.61 45.4802 14.68 45.1351 14.68H30.9511C30.606 14.68 30.2541 14.61 29.983 14.3841C29.6945 14.1437 29.5871 13.8035 29.5871 13.46V4.34C29.5871 3.99653 29.6945 3.65632 29.983 3.41589ZM30.6054 4.2107C30.5979 4.22942 30.5871 4.26897 30.5871 4.34V13.46C30.5871 13.531 30.5979 13.5706 30.6054 13.5893C30.6116 13.605 30.6172 13.6109 30.6232 13.6159C30.6402 13.63 30.7202 13.68 30.9511 13.68H45.1351C45.366 13.68 45.4461 13.63 45.463 13.6159C45.469 13.6109 45.4746 13.605 45.4809 13.5893C45.4884 13.5706 45.4991 13.531 45.4991 13.46V4.34C45.4991 4.26897 45.4884 4.22942 45.4809 4.2107C45.4746 4.19503 45.469 4.18911 45.463 4.18411C45.4461 4.16999 45.366 4.12 45.1351 4.12H30.9511C30.7202 4.12 30.6402 4.16999 30.6232 4.18411C30.6172 4.18911 30.6116 4.19503 30.6054 4.2107ZM105.499 3.41589C105.77 3.19001 106.122 3.12 106.467 3.12H120.651C120.996 3.12 121.348 3.19001 121.619 3.41589C121.907 3.65632 122.015 3.99653 122.015 4.34V13.46C122.015 13.8035 121.907 14.1437 121.619 14.3841C121.348 14.61 120.996 14.68 120.651 14.68H106.467C106.122 14.68 105.77 14.61 105.499 14.3841C105.21 14.1437 105.103 13.8035 105.103 13.46V4.34C105.103 3.99653 105.21 3.65632 105.499 3.41589ZM106.121 4.2107C106.114 4.22942 106.103 4.26897 106.103 4.34V13.46C106.103 13.531 106.114 13.5706 106.121 13.5893C106.127 13.605 106.133 13.6109 106.139 13.6159C106.156 13.63 106.236 13.68 106.467 13.68H120.651C120.882 13.68 120.962 13.63 120.979 13.6159C120.985 13.6109 120.99 13.605 120.997 13.5893C121.004 13.5706 121.015 13.531 121.015 13.46V4.34C121.015 4.26897 121.004 4.22942 120.997 4.2107C120.99 4.19503 120.985 4.18911 120.979 4.18411C120.962 4.16999 120.882 4.12 120.651 4.12H106.467C106.236 4.12 106.156 4.16999 106.139 4.18411C106.133 4.18911 106.127 4.19503 106.121 4.2107ZM4.04588 9.96H19.0899C19.4297 9.96 19.7779 10.0312 20.0453 10.2604C20.3274 10.5022 20.4299 10.8411 20.4299 11.18V13.46C20.4299 13.7989 20.3274 14.1378 20.0453 14.3796C19.7779 14.6088 19.4297 14.68 19.0899 14.68H4.04588V9.96ZM5.04588 10.96V13.68H19.0899C19.31 13.68 19.3819 13.6312 19.3945 13.6204C19.399 13.6165 19.4047 13.6108 19.4114 13.5938C19.4192 13.5737 19.4299 13.5325 19.4299 13.46V11.18C19.4299 11.1075 19.4192 11.0663 19.4114 11.0462C19.4047 11.0292 19.399 11.0235 19.3945 11.0196C19.3819 11.0088 19.31 10.96 19.0899 10.96H5.04588Z" fill="black"/>
<path d="M37.3983 38.2999H38.6463L33.5263 27.0999H32.3583L27.2383 38.2999H28.4703L29.8143 35.3079H36.0543L37.3983 38.2999ZM30.2463 34.3479L32.9343 28.3319L35.6223 34.3479H30.2463Z" fill="black"/>
<path d="M49.0325 32.5239C50.1525 32.1079 50.8565 31.2599 50.8565 29.9639C50.8565 28.0919 49.4005 27.0999 47.0485 27.0999H42.3925V38.2999H47.3525C50.0565 38.2999 51.4165 37.1959 51.4165 35.2759C51.4165 33.7879 50.6005 32.8439 49.0325 32.5239ZM43.5605 28.0439H46.9845C48.6965 28.0439 49.6725 28.7639 49.6725 30.1079C49.6725 31.4679 48.6965 32.1719 46.9845 32.1719H43.5605V28.0439ZM47.3525 37.3559H43.5605V33.0839H47.3525C49.2405 33.0839 50.2485 33.7399 50.2485 35.1959C50.2485 36.6679 49.2405 37.3559 47.3525 37.3559Z" fill="black"/>
<path d="M63.1487 27.0999H54.1087V28.1239H58.0447V38.2999H59.2127V28.1239H63.1487V27.0999Z" fill="black"/>
<path d="M71.5827 38.3959C74.9427 38.3959 77.4547 35.9799 77.4547 32.6999C77.4547 29.4199 74.9427 27.0039 71.5827 27.0039C68.1907 27.0039 65.6947 29.4359 65.6947 32.6999C65.6947 35.9639 68.1907 38.3959 71.5827 38.3959ZM71.5827 37.3399C68.8787 37.3399 66.8627 35.3719 66.8627 32.6999C66.8627 30.0279 68.8787 28.0599 71.5827 28.0599C74.2707 28.0599 76.2707 30.0279 76.2707 32.6999C76.2707 35.3719 74.2707 37.3399 71.5827 37.3399Z" fill="black"/>
<path d="M90.1755 37.2759V27.0999H82.6235L82.4955 30.7319C82.3835 34.2999 82.0315 37.1799 80.4315 37.2759H79.8715L79.8555 40.8119H80.9595L80.9755 38.2999H90.7515V40.8119H91.8555V37.2759H90.1755ZM83.5515 30.8439L83.6475 28.1239H89.0075V37.2759H82.1115C83.1835 36.4599 83.4555 33.7559 83.5515 30.8439Z" fill="black"/>
<path d="M100.783 38.3959C104.143 38.3959 106.655 35.9799 106.655 32.6999C106.655 29.4199 104.143 27.0039 100.783 27.0039C97.3907 27.0039 94.8947 29.4359 94.8947 32.6999C94.8947 35.9639 97.3907 38.3959 100.783 38.3959ZM100.783 37.3399C98.0787 37.3399 96.0627 35.3719 96.0627 32.6999C96.0627 30.0279 98.0787 28.0599 100.783 28.0599C103.471 28.0599 105.471 30.0279 105.471 32.6999C105.471 35.3719 103.471 37.3399 100.783 37.3399Z" fill="black"/>
<path d="M121.736 27.0999L116.92 35.4039L112.056 27.0999H111.08V38.2999H112.216V29.3879L116.616 36.8759H117.176L121.576 29.3399V38.2999H122.712V27.0999H121.736Z" fill="black"/>
</svg>