<svg width="153" height="41" viewBox="0 0 153 41" fill="none" xmlns="http://www.w3.org/2000/svg">
<path d="M128.578 32.3008H152.578V33.3008H128.578V32.3008Z" fill="white"/>
<path fill-rule="evenodd" clip-rule="evenodd" d="M23.0496 32.3008H0.578125V33.3008H22.6011L23.0496 32.3008Z" fill="white"/>
<path d="M18.668 17.3H0.5V0.5H18.668C20.188 0.5 21.316 0.844001 22.052 1.532C22.788 2.204 23.156 3.14 23.156 4.34V5.972C23.156 6.596 22.948 7.188 22.532 7.748C22.116 8.292 21.46 8.684 20.564 8.924C21.444 9.164 22.092 9.556 22.508 10.1C22.94 10.644 23.156 11.22 23.156 11.828V13.46C23.156 14.66 22.788 15.604 22.052 16.292C21.316 16.964 20.188 17.3 18.668 17.3ZM18.668 3.62H4.124V7.34H18.668C19.228 7.34 19.508 7.1 19.508 6.62V4.34C19.508 3.86 19.228 3.62 18.668 3.62ZM18.668 10.46H4.124V14.18H18.668C19.228 14.18 19.508 13.94 19.508 13.46V11.18C19.508 10.7 19.228 10.46 18.668 10.46Z" fill="white"/>
<path d="M26.0413 4.34C26.0413 3.204 26.4653 2.284 27.3132 1.58C28.1772 0.86 29.2492 0.5 30.5292 0.5H44.7132C45.9932 0.5 47.0573 0.86 47.9053 1.58C48.7692 2.284 49.2013 3.204 49.2013 4.34V13.46C49.2013 14.596 48.7692 15.524 47.9053 16.244C47.0573 16.948 45.9932 17.3 44.7132 17.3H30.5292C29.2492 17.3 28.1772 16.948 27.3132 16.244C26.4653 15.524 26.0413 14.596 26.0413 13.46V4.34ZM45.5773 13.46V4.34C45.5773 3.86 45.2892 3.62 44.7132 3.62H30.5292C29.9532 3.62 29.6653 3.86 29.6653 4.34V13.46C29.6653 13.94 29.9532 14.18 30.5292 14.18H44.7132C45.2892 14.18 45.5773 13.94 45.5773 13.46Z" fill="white"/>
<path d="M56.1965 4.34V13.46C56.1965 13.94 56.4845 14.18 57.0605 14.18H73.8125V16.652L73.2365 17.3H57.0605C55.7805 17.3 54.7085 16.948 53.8445 16.244C52.9965 15.524 52.5725 14.596 52.5725 13.46V4.34C52.5725 3.204 52.9965 2.284 53.8445 1.58C54.7085 0.86 55.7805 0.5 57.0605 0.5H73.2365L73.8125 1.148V3.62H57.0605C56.4845 3.62 56.1965 3.86 56.1965 4.34Z" fill="white"/>
<path d="M75.8497 3.62V0.5H99.0337V3.62H89.2657V17.3H85.6417V3.62H75.8497Z" fill="white"/>
<path d="M101.557 4.34C101.557 3.204 101.981 2.284 102.829 1.58C103.693 0.86 104.765 0.5 106.045 0.5H120.229C121.509 0.5 122.573 0.86 123.421 1.58C124.285 2.284 124.717 3.204 124.717 4.34V13.46C124.717 14.596 124.285 15.524 123.421 16.244C122.573 16.948 121.509 17.3 120.229 17.3H106.045C104.765 17.3 103.693 16.948 102.829 16.244C101.981 15.524 101.557 14.596 101.557 13.46V4.34ZM121.093 13.46V4.34C121.093 3.86 120.805 3.62 120.229 3.62H106.045C105.469 3.62 105.181 3.86 105.181 4.34V13.46C105.181 13.94 105.469 14.18 106.045 14.18H120.229C120.805 14.18 121.093 13.94 121.093 13.46Z" fill="white"/>
<path d="M131.952 0.5V7.34H139.824L147.096 0.5H150.6V1.196L142.44 8.876L151.056 16.604V17.3H146.88L139.344 10.46H131.952V17.3H128.328V0.5H131.952Z" fill="white"/>
<path fill-rule="evenodd" clip-rule="evenodd" d="M0 0H18.668C20.2505 0 21.5252 0.356479 22.3913 1.16471C23.2505 1.9504 23.656 3.03169 23.656 4.34V5.972C23.656 6.71598 23.4055 7.41062 22.9334 8.04616L22.9292 8.05175C22.6587 8.40555 22.3118 8.69586 21.8989 8.92889C22.2988 9.15975 22.6364 9.44584 22.9024 9.79259C23.3923 10.4108 23.656 11.0926 23.656 11.828V13.46C23.656 14.7698 23.2498 15.8568 22.3934 16.6573L22.3892 16.6613C21.523 17.4521 20.2493 17.8 18.668 17.8H0V0ZM1 1V16.8H18.668C20.125 16.8 21.1067 16.4767 21.7127 15.9247C22.327 15.3494 22.656 14.549 22.656 13.46V11.828C22.656 11.3488 22.4887 10.8798 22.1164 10.4109L22.1108 10.4038C21.7804 9.97177 21.2417 9.62708 20.4324 9.40638L18.6478 8.91965L20.4346 8.44103C21.2597 8.22002 21.8038 7.87557 22.1328 7.44696C22.4912 6.96344 22.656 6.47503 22.656 5.972V4.34C22.656 3.24939 22.3262 2.45939 21.7149 1.90124L21.7105 1.89729C21.1047 1.33095 20.1242 1 18.668 1H1ZM30.5292 1C29.3491 1 28.3952 1.32926 27.6333 1.96411C26.9038 2.5698 26.5413 3.34745 26.5413 4.34V13.46C26.5413 14.4511 26.9022 15.2374 27.633 15.8596C28.3941 16.4782 29.3484 16.8 30.5292 16.8H44.7132C45.8962 16.8 46.8414 16.4772 47.5855 15.8596C48.3339 15.2358 48.7013 14.4492 48.7013 13.46V4.34C48.7013 3.35096 48.3343 2.57456 47.5894 1.96762L47.5816 1.96123C46.8374 1.32936 45.8936 1 44.7132 1H30.5292ZM26.9939 1.1953C27.9599 0.390546 29.1497 0 30.5292 0H44.7132C46.0911 0 47.2739 0.389684 48.2251 1.19565C49.2056 1.99633 49.7013 3.05879 49.7013 4.34V13.46C49.7013 14.7427 49.2047 15.812 48.2253 16.6281C47.2734 17.4184 46.0901 17.8 44.7132 17.8H30.5292C29.1522 17.8 27.9636 17.4189 26.9974 16.6316L26.9896 16.6252C26.027 15.8079 25.5413 14.7392 25.5413 13.46V4.34C25.5413 3.06056 26.0275 1.9976 26.9939 1.1953ZM57.0605 1C55.8804 1 54.9264 1.32926 54.1646 1.96411C53.435 2.5698 53.0725 3.34745 53.0725 4.34V13.46C53.0725 14.4511 53.4334 15.2374 54.1643 15.8596C54.9254 16.4782 55.8796 16.8 57.0605 16.8H73.012L73.3125 16.4619V14.68H57.0605C56.7154 14.68 56.3635 14.61 56.0924 14.3841C55.8039 14.1437 55.6965 13.8035 55.6965 13.46V4.34C55.6965 3.99653 55.8039 3.65632 56.0924 3.41589C56.3635 3.19001 56.7154 3.12 57.0605 3.12H73.3125V1.3381L73.012 1H57.0605ZM53.5251 1.1953C54.4912 0.390546 55.681 0 57.0605 0H73.461L74.3125 0.957901V4.12H57.0605C56.8296 4.12 56.7495 4.16999 56.7326 4.18411C56.7266 4.18911 56.721 4.19503 56.7147 4.2107C56.7072 4.22942 56.6965 4.26897 56.6965 4.34V13.46C56.6965 13.531 56.7072 13.5706 56.7147 13.5893C56.721 13.605 56.7266 13.6109 56.7326 13.6159C56.7495 13.63 56.8296 13.68 57.0605 13.68H74.3125V16.8421L73.461 17.8H57.0605C55.6834 17.8 54.4949 17.4189 53.5287 16.6316L53.5208 16.6252C52.5582 15.8079 52.0725 14.7392 52.0725 13.46V4.34C52.0725 3.06056 52.5587 1.9976 53.5251 1.1953ZM75.3497 0H99.5337V4.12H89.7657V17.8H85.1417V4.12H75.3497V0ZM76.3497 1V3.12H86.1417V16.8H88.7657V3.12H98.5337V1H76.3497ZM106.045 1C104.865 1 103.911 1.32926 103.149 1.96411C102.419 2.5698 102.057 3.34745 102.057 4.34V13.46C102.057 14.451 102.418 15.2373 103.149 15.8595C103.91 16.4782 104.864 16.8 106.045 16.8H120.229C121.412 16.8 122.357 16.4772 123.101 15.8599C123.849 15.236 124.217 14.4493 124.217 13.46V4.34C124.217 3.35096 123.85 2.57456 123.105 1.96762L123.097 1.96123C122.353 1.32936 121.409 1 120.229 1H106.045ZM102.509 1.19589C103.475 0.390739 104.665 0 106.045 0H120.229C121.607 0 122.789 0.389629 123.741 1.19548C124.721 1.99618 125.217 3.0587 125.217 4.34V13.46C125.217 14.7427 124.72 15.812 123.741 16.6281C122.789 17.4184 121.606 17.8 120.229 17.8H106.045C104.668 17.8 103.479 17.4189 102.513 16.6316L102.505 16.6252C101.543 15.8079 101.057 14.7392 101.057 13.46V4.34C101.057 3.06087 101.543 1.99813 102.509 1.19589ZM127.828 0H132.452V6.84H139.626L146.898 0H151.1V1.41204L143.179 8.86713L151.556 16.3808V17.8H146.687L139.151 10.96H132.452V17.8H127.828V0ZM128.828 1V16.8H131.452V9.96H139.537L147.073 16.8H150.526L141.701 8.88486L150.079 1H147.294L140.022 7.84H131.452V1H128.828ZM3.624 3.12H18.668C19.0078 3.12 19.356 3.19118 19.6234 3.42037C19.9055 3.66221 20.008 4.00107 20.008 4.34V6.62C20.008 6.95893 19.9055 7.29779 19.6234 7.53963C19.356 7.76882 19.0078 7.84 18.668 7.84H3.624V3.12ZM4.624 4.12V6.84H18.668C18.8882 6.84 18.96 6.79118 18.9726 6.78037C18.9771 6.77649 18.9829 6.77084 18.9895 6.75378C18.9973 6.73369 19.008 6.69252 19.008 6.62V4.34C19.008 4.26748 18.9973 4.22631 18.9895 4.20622C18.9829 4.18916 18.9771 4.18351 18.9726 4.17963C18.96 4.16882 18.8882 4.12 18.668 4.12H4.624ZM29.5612 3.41589C29.8322 3.19001 30.1841 3.12 30.5292 3.12H44.7132C45.0584 3.12 45.4103 3.19001 45.6813 3.41589C45.9699 3.65632 46.0773 3.99653 46.0773 4.34V13.46C46.0773 13.8035 45.9699 14.1437 45.6813 14.3841C45.4103 14.61 45.0584 14.68 44.7132 14.68H30.5292C30.1841 14.68 29.8322 14.61 29.5612 14.3841C29.2726 14.1437 29.1653 13.8035 29.1653 13.46V4.34C29.1653 3.99653 29.2726 3.65632 29.5612 3.41589ZM30.1835 4.2107C30.176 4.22942 30.1653 4.26897 30.1653 4.34V13.46C30.1653 13.531 30.176 13.5706 30.1835 13.5893C30.1898 13.605 30.1953 13.6109 30.2013 13.6159C30.2183 13.63 30.2984 13.68 30.5292 13.68H44.7132C44.9441 13.68 45.0242 13.63 45.0412 13.6159C45.0472 13.6109 45.0527 13.605 45.059 13.5893C45.0665 13.5706 45.0773 13.531 45.0773 13.46V4.34C45.0773 4.26897 45.0665 4.22942 45.059 4.2107C45.0527 4.19503 45.0472 4.18911 45.0412 4.18411C45.0242 4.16999 44.9441 4.12 44.7132 4.12H30.5292C30.2984 4.12 30.2183 4.16999 30.2013 4.18411C30.1953 4.18911 30.1898 4.19503 30.1835 4.2107ZM105.077 3.41589C105.348 3.19001 105.7 3.12 106.045 3.12H120.229C120.574 3.12 120.926 3.19001 121.197 3.41589C121.485 3.65632 121.593 3.99653 121.593 4.34V13.46C121.593 13.8035 121.485 14.1437 121.197 14.3841C120.926 14.61 120.574 14.68 120.229 14.68H106.045C105.7 14.68 105.348 14.61 105.077 14.3841C104.788 14.1437 104.681 13.8035 104.681 13.46V4.34C104.681 3.99653 104.788 3.65632 105.077 3.41589ZM105.699 4.2107C105.692 4.22942 105.681 4.26897 105.681 4.34V13.46C105.681 13.531 105.692 13.5706 105.699 13.5893C105.705 13.605 105.711 13.6109 105.717 13.6159C105.734 13.63 105.814 13.68 106.045 13.68H120.229C120.46 13.68 120.54 13.63 120.557 13.6159C120.563 13.6109 120.568 13.605 120.575 13.5893C120.582 13.5706 120.593 13.531 120.593 13.46V4.34C120.593 4.26897 120.582 4.22942 120.575 4.2107C120.568 4.19503 120.563 4.18911 120.557 4.18411C120.54 4.16999 120.46 4.12 120.229 4.12H106.045C105.814 4.12 105.734 4.16999 105.717 4.18411C105.711 4.18911 105.705 4.19503 105.699 4.2107ZM3.624 9.96H18.668C19.0078 9.96 19.356 10.0312 19.6234 10.2604C19.9055 10.5022 20.008 10.8411 20.008 11.18V13.46C20.008 13.7989 19.9055 14.1378 19.6234 14.3796C19.356 14.6088 19.0078 14.68 18.668 14.68H3.624V9.96ZM4.624 10.96V13.68H18.668C18.8882 13.68 18.96 13.6312 18.9726 13.6204C18.9771 13.6165 18.9829 13.6108 18.9895 13.5938C18.9973 13.5737 19.008 13.5325 19.008 13.46V11.18C19.008 11.1075 18.9973 11.0663 18.9895 11.0462C18.9829 11.0292 18.9771 11.0235 18.9726 11.0196C18.96 11.0088 18.8882 10.96 18.668 10.96H4.624Z" fill="white"/>
<path d="M36.9764 38.2999H38.2244L33.1044 27.0999H31.9364L26.8164 38.2999H28.0484L29.3924 35.3079H35.6324L36.9764 38.2999ZM29.8244 34.3479L32.5124 28.3319L35.2004 34.3479H29.8244Z" fill="white"/>
<path d="M48.6107 32.5239C49.7307 32.1079 50.4347 31.2599 50.4347 29.9639C50.4347 28.0919 48.9787 27.0999 46.6267 27.0999H41.9707V38.2999H46.9307C49.6347 38.2999 50.9947 37.1959 50.9947 35.2759C50.9947 33.7879 50.1787 32.8439 48.6107 32.5239ZM43.1387 28.0439H46.5627C48.2747 28.0439 49.2507 28.7639 49.2507 30.1079C49.2507 31.4679 48.2747 32.1719 46.5627 32.1719H43.1387V28.0439ZM46.9307 37.3559H43.1387V33.0839H46.9307C48.8187 33.0839 49.8267 33.7399 49.8267 35.1959C49.8267 36.6679 48.8187 37.3559 46.9307 37.3559Z" fill="white"/>
<path d="M62.7268 27.0999H53.6868V28.1239H57.6228V38.2999H58.7908V28.1239H62.7268V27.0999Z" fill="white"/>
<path d="M71.1608 38.3959C74.5208 38.3959 77.0328 35.9799 77.0328 32.6999C77.0328 29.4199 74.5208 27.0039 71.1608 27.0039C67.7688 27.0039 65.2728 29.4359 65.2728 32.6999C65.2728 35.9639 67.7688 38.3959 71.1608 38.3959ZM71.1608 37.3399C68.4568 37.3399 66.4408 35.3719 66.4408 32.6999C66.4408 30.0279 68.4568 28.0599 71.1608 28.0599C73.8488 28.0599 75.8488 30.0279 75.8488 32.6999C75.8488 35.3719 73.8488 37.3399 71.1608 37.3399Z" fill="white"/>
<path d="M89.7537 37.2759V27.0999H82.2017L82.0737 30.7319C81.9617 34.2999 81.6097 37.1799 80.0097 37.2759H79.4497L79.4337 40.8119H80.5377L80.5537 38.2999H90.3297V40.8119H91.4337V37.2759H89.7537ZM83.1297 30.8439L83.2257 28.1239H88.5857V37.2759H81.6897C82.7617 36.4599 83.0337 33.7559 83.1297 30.8439Z" fill="white"/>
<path d="M100.361 38.3959C103.721 38.3959 106.233 35.9799 106.233 32.6999C106.233 29.4199 103.721 27.0039 100.361 27.0039C96.9688 27.0039 94.4728 29.4359 94.4728 32.6999C94.4728 35.9639 96.9688 38.3959 100.361 38.3959ZM100.361 37.3399C97.6568 37.3399 95.6408 35.3719 95.6408 32.6999C95.6408 30.0279 97.6568 28.0599 100.361 28.0599C103.049 28.0599 105.049 30.0279 105.049 32.6999C105.049 35.3719 103.049 37.3399 100.361 37.3399Z" fill="white"/>
<path d="M121.314 27.0999L116.498 35.4039L111.634 27.0999H110.658V38.2999H111.794V29.3879L116.194 36.8759H116.754L121.154 29.3399V38.2999H122.29V27.0999H121.314Z" fill="white"/>
</svg>