<svg width="33" height="37" fill="none" xmlns="http://www.w3.org/2000/svg"><path fill-rule="evenodd" clip-rule="evenodd" d="M17.42.068a16.654 16.654 0 0 1 8.302 3.17c.723.536 2.103 1.851 2.7 2.573 2.42 2.929 3.659 6.811 3.375 10.579-.267 3.548-1.717 6.793-4.192 9.38-1.242 1.3-10.98 10.554-11.205 10.65-.314.133-.65.132-.964-.001-.223-.095-10.08-9.464-11.243-10.687C-.703 20.585-1.387 12.83 2.54 6.991c1.22-1.814 3.078-3.552 5.074-4.748C10.408.57 14.108-.252 17.42.068Z" fill="#000"/><path fill="#fff" d="M15.129 9.581h1.585v12.676h-1.585z"/><path fill="#fff" d="M22.258 15.128v1.585H9.582v-1.585z"/></svg>